<svg width="26" height="26" xmlns="http://www.w3.org/2000/svg" fill="none">
 <defs>
  <linearGradient y2="0" x2="1" y1="0" x1="0" id="svg_5">
   <stop offset="0" stop-opacity="0.99609" stop-color="#96bdff"/>
   <stop offset="1" stop-opacity="0.99609" stop-color="#3259ff"/>
  </linearGradient>
 </defs>
 <g>
  <title>Layer 1</title>
  <path id="svg_1" stroke-linejoin="round" stroke-linecap="round" stroke-width="1.5" stroke="url(#svg_5)" d="m20.5834,8.66669c1.7949,0 3.25,-1.45508 3.25,-3.25c0,-1.79493 -1.4551,-3.25 -3.25,-3.25c-1.795,0 -3.25,1.45507 -3.25,3.25c0,1.79492 1.455,3.25 3.25,3.25z"/>
  <path id="svg_2" stroke-linejoin="round" stroke-linecap="round" stroke-width="1.5" stroke="#3259ff" d="m7.58337,14.2083l5.41663,0"/>
  <path id="svg_3" stroke-linejoin="round" stroke-linecap="round" stroke-width="1.5" stroke="#3259ff" d="m7.58337,18.5417l9.75003,0"/>
  <path id="svg_4" stroke-linejoin="round" stroke-linecap="round" stroke-width="1.5" stroke="url(#svg_5)" d="m15.16664,2.16665l-5.41664,0c-5.41667,0 -7.58333,2.16666 -7.58333,7.58333l0,6.49998c0,5.4167 2.16666,7.5834 7.58333,7.5834l6.50004,0c5.4166,0 7.5833,-2.1667 7.5833,-7.5834l0,-5.4166"/>
 </g>
</svg>