<svg width="26" height="26" viewBox="0 0 26 26" fill="none" xmlns="http://www.w3.org/2000/svg">
<path d="M23.8333 23.0208H22.4791V11.9167C22.4791 9.295 21.0383 7.85417 18.4166 7.85417H13.8125V6.52167C14.4408 6.67333 15.0691 6.76 15.7083 6.76C16.7266 6.76 17.745 6.565 18.72 6.175C19.0233 6.05583 19.2291 5.7525 19.2291 5.41667V2.16667C19.2291 1.89583 19.0991 1.64667 18.8716 1.495C18.6441 1.34333 18.3625 1.31083 18.1133 1.40833C16.5641 2.02583 14.8525 2.02583 13.3033 1.40833C13.0541 1.31083 12.7725 1.34333 12.545 1.495C12.3175 1.64667 12.1875 1.89583 12.1875 2.16667V5.41667V7.85417H7.58329C4.96163 7.85417 3.52079 9.295 3.52079 11.9167V23.0208H2.16663C1.72246 23.0208 1.35413 23.3892 1.35413 23.8333C1.35413 24.2775 1.72246 24.6458 2.16663 24.6458H4.33329H21.6666H23.8333C24.2775 24.6458 24.6458 24.2775 24.6458 23.8333C24.6458 23.3892 24.2775 23.0208 23.8333 23.0208ZM7.84329 23.0208H5.14579V13.8125H7.84329V23.0208ZM12.1766 23.0208H9.46829V13.8125H12.1766V23.0208ZM16.51 23.0208H13.8016V13.8125H16.51V23.0208ZM20.8541 23.0208H18.135V13.8125H20.8541V23.0208Z" fill="url(#paint0_linear_4001_1907)"/>
<defs>
<linearGradient id="paint0_linear_4001_1907" x1="0.741187" y1="16.1757" x2="29.7346" y2="14.2544" gradientUnits="userSpaceOnUse">
<stop stop-color="#96BDFF"/>
<stop offset="1" stop-color="#3259FF"/>
</linearGradient>
</defs>
</svg>
