<svg width="145" height="42" viewBox="0 0 145 42" fill="none" xmlns="http://www.w3.org/2000/svg">
<rect x="51.1875" width="42" height="42" rx="14" fill="#1A1A1A"/>
<g clip-path="url(#clip0_4002_2480)">
<path d="M75.0659 21.0093C74.4023 21.8322 73.746 22.6398 73.0917 23.4455C70.7982 26.2685 68.5036 29.0907 66.2079 31.912C65.7261 32.5026 65.0651 32.7647 64.3225 32.8099C63.862 32.8384 63.5182 32.6108 63.2952 32.2086C63.057 31.7793 63.0019 31.3101 63.0019 30.8303C63.0019 26.4398 63.0019 22.0492 63.0019 17.6587C63.0019 15.4906 62.9946 13.3232 63.0099 11.1552C63.0126 10.7915 63.0696 10.4302 63.1791 10.0834C63.4147 9.34813 63.9582 9.05945 64.7054 9.23863C65.3525 9.39458 65.9 9.6952 66.3353 10.2341C69.1601 13.7371 71.9956 17.2313 74.8416 20.7167C74.9113 20.8023 74.9764 20.8919 75.0659 21.0093Z" fill="white"/>
<path d="M79.6278 24.3261L76.9308 21.0046L79.6244 17.6865C80.4719 18.1769 81.3041 18.6548 82.1323 19.1392C82.4853 19.3456 82.8483 19.5407 83.1735 19.7849C84.1689 20.5315 84.1643 21.444 83.1861 22.2184C83.1362 22.2622 83.0832 22.3023 83.0275 22.3385C81.9033 22.9975 80.7785 23.6545 79.6278 24.3261Z" fill="white"/>
<path d="M69.5818 30.0473L76.0004 22.1501C76.7927 23.1257 77.5625 24.0713 78.3602 25.0522L69.6236 30.0957L69.5818 30.0473Z" fill="white"/>
<path d="M69.6203 11.9124L78.3576 16.9559L75.9997 19.8579L69.5805 11.9608L69.6203 11.9124Z" fill="white"/>
</g>
<rect width="42" height="42" rx="14" fill="#1A1A1A"/>
<g clip-path="url(#clip1_4002_2480)">
<path fill-rule="evenodd" clip-rule="evenodd" d="M22.4391 9.93121C23.9916 7.88513 26.1494 7.87427 26.1494 7.87427C26.1494 7.87427 26.4704 9.79809 24.9284 11.6509C23.2821 13.6302 21.4103 13.3058 21.4103 13.3058C21.4103 13.3058 21.059 11.7503 22.4391 9.93121Z" fill="white"/>
<path fill-rule="evenodd" clip-rule="evenodd" d="M21.6086 14.6541C22.4073 14.6541 23.8891 13.5562 25.8183 13.5562C29.1389 13.5562 30.4453 15.9193 30.4453 15.9193C30.4453 15.9193 27.8904 17.2253 27.8904 20.3953C27.8904 23.9709 31.0729 25.2031 31.0729 25.2031C31.0729 25.2031 28.8475 31.4656 25.8424 31.4656C24.4619 31.4656 23.3888 30.5341 21.9346 30.5341C20.4524 30.5341 18.9815 31.4989 18.0237 31.4989C15.2794 31.4989 11.814 25.5586 11.814 20.7834C11.814 16.0874 14.7489 13.621 17.5013 13.621C19.2889 13.6221 20.6771 14.6541 21.6086 14.6541Z" fill="white"/>
</g>
<rect x="102.375" width="42" height="42" rx="14" fill="#1A1A1A"/>
<g clip-path="url(#clip2_4002_2480)">
<path d="M114.106 3.93798C113.533 3.93881 113.068 4.4151 113.069 5.00215C113.069 5.58944 113.534 6.06514 114.108 6.0649C114.681 6.06466 115.146 5.58849 115.146 5.0012V4.9993C115.145 4.41201 114.679 3.93667 114.106 3.9375V3.93798ZM132.684 3.93798C132.111 3.93881 131.646 4.4151 131.647 5.00215C131.647 5.58956 132.112 6.06538 132.686 6.0649C133.26 6.06466 133.724 5.58849 133.724 5.0012V4.9993C133.723 4.41189 133.257 3.93643 132.684 3.9375V3.93798Z" fill="#1A1A1A"/>
<path d="M114.065 4.85485C113.704 4.87479 113.722 5.41388 113.722 5.41388C115.662 9.29722 119.234 11.2014 123.353 11.2019C127.467 11.1957 131.074 9.27015 133.011 5.39263C133.011 5.39263 133.088 4.66253 132.332 4.91551C130.345 8.30036 127.007 10.3026 123.355 10.3088C119.697 10.3098 116.371 8.32825 114.38 4.93724C114.251 4.87325 114.148 4.8501 114.065 4.85485ZM127.193 19.9474L126.09 23.3256L125.016 19.9498H123.967L125.659 24.8612H126.476L127.582 21.6351L128.687 24.8612H129.51L131.199 19.9502H130.177L129.101 23.3261L127.997 19.9479L127.193 19.9474ZM121.332 19.9488L119.19 24.8579H120.197L120.61 23.9074L120.64 23.8358H122.864L123.3 24.8579H124.334L122.212 19.9777L122.194 19.9488H121.332ZM136.839 19.9488V24.855H137.812V19.9493L136.839 19.9488ZM108.938 19.9498V24.8626H109.924V22.8675H112.15V24.8621H113.137V19.9502H112.151V21.9322H109.924V19.9502L108.938 19.9498ZM117.702 19.9512V22.7632C117.702 23.5616 117.311 23.988 116.597 23.988C115.884 23.988 115.486 23.5497 115.486 22.7292V19.954H114.5V22.7632C114.5 24.1453 115.26 24.9375 116.585 24.9375C117.909 24.9375 118.688 24.1301 118.688 22.7225V19.9507L117.702 19.9512ZM131.995 19.9531V24.8588H135.666V23.9643H132.968V22.748H134.761V21.8526H132.968V20.8481H135.572V19.9536L131.995 19.9531H131.995ZM121.749 21.1917L122.453 22.8367L122.501 22.95H121.008L121.055 22.8367L121.749 21.1917Z" fill="white"/>
</g>
<defs>
<clipPath id="clip0_4002_2480">
<rect width="20.9194" height="23.625" fill="white" transform="translate(63 9.1875)"/>
</clipPath>
<clipPath id="clip1_4002_2480">
<rect width="19.2596" height="23.625" fill="white" transform="translate(11.8125 7.875)"/>
</clipPath>
<clipPath id="clip2_4002_2480">
<rect width="28.875" height="21" fill="white" transform="translate(108.938 3.9375)"/>
</clipPath>
</defs>
</svg>
