<svg width="26" height="26" xmlns="http://www.w3.org/2000/svg" fill="none">

 <g>
  <title>Layer 1</title>
  <path stroke="#b5b9c3" id="svg_1" fill="#b5b9c3" d="m23.83334,23.02145l-1.3542,0l0,-11.1041c0,-2.6217 -1.4408,-4.06253 -4.0625,-4.06253l-4.6041,0l0,-1.3325c0.6283,0.15166 1.2566,0.23833 1.8958,0.23833c1.0183,0 2.0367,-0.195 3.0117,-0.585c0.3033,-0.11917 0.5091,-0.4225 0.5091,-0.75833l0,-3.25c0,-0.27084 -0.13,-0.52 -0.3575,-0.67167c-0.2275,-0.15167 -0.5091,-0.18417 -0.7583,-0.08667c-1.5492,0.6175 -3.2608,0.6175 -4.81,0c-0.2492,-0.0975 -0.5308,-0.065 -0.7583,0.08667c-0.2275,0.15167 -0.3575,0.40083 -0.3575,0.67167l0,3.25l0,2.4375l-4.60421,0c-2.62166,0 -4.0625,1.44083 -4.0625,4.06253l0,11.1041l-1.35416,0c-0.44417,0 -0.8125,0.3684 -0.8125,0.8125c0,0.4442 0.36833,0.8125 0.8125,0.8125l2.16666,0l17.33331,0l2.1667,0c0.4442,0 0.8125,-0.3683 0.8125,-0.8125c0,-0.4441 -0.3683,-0.8125 -0.8125,-0.8125zm-15.99001,0l-2.6975,0l0,-9.2083l2.6975,0l0,9.2083zm4.33331,0l-2.70831,0l0,-9.2083l2.70831,0l0,9.2083zm4.3334,0l-2.7084,0l0,-9.2083l2.7084,0l0,9.2083zm4.3441,0l-2.7191,0l0,-9.2083l2.7191,0l0,9.2083z"/>
 </g>
</svg>